<svg xmlns="http://www.w3.org/2000/svg" viewBox="0 0 1254 1254">
  <rect width="1254" height="1254" fill="#FFFFFF"/><path fill="#E2AD63" fill-rule="evenodd" clip-rule="evenodd" d="M555.309570,776.296021 
	C531.289490,795.893250 506.253906,813.078186 476.701813,822.562317 
	C441.331543,833.913818 407.172302,830.497986 374.875336,812.608398 
	C348.371643,797.927795 322.305695,782.417542 296.468170,766.585571 
	C274.185516,752.931763 256.490997,734.774536 248.565979,709.158081 
	C245.802994,700.227112 244.098526,690.582336 244.061096,681.254944 
	C243.728546,598.425842 243.742569,515.594543 243.939209,432.764496 
	C244.052170,385.185028 278.630219,344.194855 325.231720,336.423401 
	C354.995331,331.459930 381.575439,339.850922 404.234619,359.151093 
	C417.123596,370.129364 428.565216,382.831512 440.439056,394.972076 
	C468.400299,423.561371 496.237396,452.272156 524.107727,480.950317 
	C531.538940,488.596893 538.856323,496.354645 546.322815,503.966370 
	C552.868958,510.639801 559.734558,510.628357 566.375549,504.177643 
	C587.888977,483.280609 609.195984,462.164307 631.013123,441.589050 
	C646.474121,427.008087 665.077576,422.486603 685.099915,429.874878 
	C705.495422,437.400909 716.770264,453.419586 717.796570,474.830750 
	C719.079651,501.598083 718.453247,528.456482 718.686707,555.275208 
	C718.722168,559.350708 716.448486,560.327209 712.886475,560.193298 
	C696.881592,559.591675 680.955017,559.706055 665.270386,563.825256 
	C645.383728,569.048157 627.937683,578.732605 612.395447,591.998840 
	C608.092651,595.671509 604.033264,599.637756 599.965759,603.576355 
	C574.712036,628.029724 542.594788,631.491272 513.520386,611.609558 
	C503.611786,604.833862 495.168884,595.758423 486.627838,587.165771 
	C444.100281,544.381042 401.783081,501.387299 359.339966,458.518494 
	C352.086761,451.192474 342.677094,452.877502 338.950897,462.481781 
	C337.190399,467.019409 336.324585,472.190979 336.314453,477.077972 
	C336.154510,554.074829 335.982208,631.073181 336.349335,708.068665 
	C336.442993,727.705627 340.317902,746.813293 351.092346,763.871338 
	C358.859070,776.167542 370.105469,780.980225 384.433807,778.467529 
	C401.808105,775.420654 417.305664,767.820190 432.360199,759.136963 
	C470.996460,736.852234 506.354370,709.858582 541.678223,682.821045 
	C572.112366,659.526245 602.810913,636.616577 637.040283,619.001587 
	C662.023987,606.144531 687.839661,595.539734 715.899841,591.615234 
	C759.741760,585.483521 797.337280,597.080994 828.083191,630.087463 
	C851.246765,654.954163 875.522278,678.783875 899.247192,703.129456 
	C912.851440,717.089539 926.391602,731.112915 939.870605,745.193970 
	C948.431946,754.137695 958.247314,753.448853 963.527588,742.279846 
	C966.400146,736.203857 967.764954,728.865906 967.803528,722.085754 
	C968.125183,665.589539 967.980591,609.090759 967.974060,552.592712 
	C967.972900,542.808105 968.967651,533.050171 974.278503,524.693542 
	C978.035645,518.781799 982.539062,512.872192 987.993408,508.601715 
	C1002.933533,496.904510 1018.547913,486.068115 1033.910645,474.911957 
	C1034.982910,474.133301 1036.121460,473.392303 1037.329956,472.863831 
	C1044.948975,469.531921 1049.854980,472.676208 1049.856079,480.953827 
	C1049.865967,555.117859 1049.684814,629.282471 1049.951538,703.445557 
	C1050.023926,723.585388 1048.335083,743.314209 1042.048462,762.516174 
	C1033.221191,789.478394 1019.580688,813.245361 997.073486,831.322327 
	C965.075623,857.021973 917.529663,855.623535 888.301941,826.750916 
	C856.062927,794.903625 824.752319,762.116943 793.008911,729.767334 
	C781.920227,718.466797 771.261719,706.675476 759.496094,696.123596 
	C740.189758,678.808838 717.393188,676.241089 693.014526,682.807190 
	C667.754395,689.610779 645.888733,702.887390 625.673279,718.932556 
	C602.065552,737.670105 578.923950,756.994934 555.309570,776.296021 
M292.552521,582.558411 
	C287.009491,579.295532 281.520264,575.931213 275.843323,572.920959 
	C275.251984,572.607361 272.536316,574.369507 272.517548,575.206848 
	C272.342712,583.014648 271.098694,591.257263 273.228485,598.468994 
	C274.331635,602.204529 281.602386,604.120850 286.091980,606.850464 
	C286.517517,607.109192 286.978241,607.311340 287.427643,607.529419 
	C291.725922,609.615723 292.745178,609.055115 292.779999,604.357910 
	C292.831879,597.360596 292.772919,590.362366 292.552521,582.558411 
M273.541626,534.627625 
	C279.465942,537.747925 285.390259,540.868225 291.288971,543.975037 
	C292.078583,542.634888 292.524628,542.222412 292.542969,541.791809 
	C292.684326,538.471008 292.814026,535.146667 292.815033,531.823425 
	C292.820007,515.730286 292.805206,515.730469 278.108978,508.654877 
	C277.809113,508.510529 277.511932,508.358551 277.223663,508.192505 
	C274.289368,506.502197 272.446381,507.848267 272.431732,510.711578 
	C272.391876,518.485596 272.796997,526.261963 273.541626,534.627625 
M280.121185,640.332947 
	C272.820801,636.555115 272.202850,636.942383 272.233612,645.279907 
	C272.238525,646.607971 272.245911,647.936035 272.258148,649.264038 
	C272.406952,665.404541 272.407257,665.404480 287.156189,672.066223 
	C287.307404,672.134521 287.460571,672.199463 287.607635,672.275879 
	C290.867249,673.970825 292.690491,673.232117 292.680420,669.311157 
	C292.674042,666.821167 292.348755,664.265808 292.786743,661.852295 
	C294.689545,651.366394 291.577301,643.893372 280.121185,640.332947 
M1009.593323,603.163940 
	C1007.468933,605.192383 1003.857483,606.996643 1003.511230,609.293091 
	C1002.628967,615.144592 1003.161072,621.216431 1003.215698,627.199219 
	C1003.244080,630.317139 1004.442871,631.529602 1007.598145,629.816772 
	C1011.389038,627.759155 1015.488525,626.217102 1019.090637,623.888977 
	C1020.720215,622.835693 1022.303589,620.494690 1022.463867,618.614746 
	C1022.928284,613.167847 1022.656189,607.658569 1022.682312,602.173767 
	C1022.699463,598.578003 1021.380859,597.072937 1017.790283,598.970520 
	C1015.297180,600.288208 1012.780640,601.561768 1009.593323,603.163940 
M1013.278625,567.777588 
	C1015.212097,566.826355 1017.432617,566.202881 1018.998047,564.831543 
	C1020.555786,563.466980 1022.329102,561.421570 1022.479919,559.551575 
	C1022.931519,553.950439 1022.667725,548.288818 1022.620361,542.651367 
	C1022.590942,539.153442 1021.069458,538.388733 1017.815674,539.777100 
	C1003.360657,545.944641 1003.338440,545.892517 1003.190063,561.681152 
	C1003.188477,561.846985 1003.185547,562.012756 1003.183960,562.178589 
	C1003.081360,572.853516 1003.081360,572.853516 1013.278625,567.777588 
M1003.240051,674.600891 
	C1003.240051,679.470093 1003.240051,684.339294 1003.240051,690.687561 
	C1010.139832,687.243774 1015.592896,684.615295 1020.926208,681.763062 
	C1021.758667,681.317871 1022.486389,679.865906 1022.514038,678.858948 
	C1022.687256,672.557495 1022.754150,666.247986 1022.628540,659.945801 
	C1022.576294,657.320374 1020.937988,656.451477 1018.522461,657.631531 
	C1015.990479,658.868469 1013.634094,660.615112 1010.983032,661.427795 
	C1004.743652,663.340576 1001.959961,667.125305 1003.240051,674.600891 
M643.636536,670.871277 
	C649.257080,668.234802 654.916870,665.675720 660.452148,662.871033 
	C661.205261,662.489380 661.666626,660.889465 661.698486,659.836548 
	C661.849121,654.859497 661.964844,649.867615 661.693176,644.902954 
	C661.638245,643.899475 659.404602,641.983276 658.934326,642.192566 
	C653.652893,644.543518 648.486755,647.166260 643.387329,649.898193 
	C642.721985,650.254700 642.265747,651.642029 642.288147,652.537537 
	C642.436768,658.475159 642.742249,664.408936 643.636536,670.871277 
M604.950195,671.530396 
	C602.510376,673.188782 598.221741,674.604553 597.966492,676.549561 
	C597.091370,683.217712 597.630676,690.071472 597.630676,697.914490 
	C601.887207,695.606079 604.784180,693.688477 607.937317,692.395996 
	C614.806824,689.580322 618.078674,684.956299 616.681396,677.378479 
	C616.013428,673.756409 615.657227,670.076782 615.159851,666.423279 
	C611.961426,667.990356 608.762939,669.557434 604.950195,671.530396 
M701.204712,646.681458 
	C706.117249,645.526062 707.728394,642.395081 707.174194,637.514404 
	C706.801025,634.228516 707.021545,630.865723 707.101868,627.540405 
	C707.179138,624.343567 705.789124,623.196838 702.785645,624.276062 
	C698.720947,625.736572 694.609680,627.120850 690.702148,628.933838 
	C689.504578,629.489502 688.232544,631.307068 688.159668,632.611816 
	C687.881897,637.586304 688.047913,642.587769 688.111206,647.578369 
	C688.153564,650.914673 689.778442,651.592896 692.677917,650.246277 
	C695.237854,649.057312 697.871277,648.026489 701.204712,646.681458 
z"/></svg>