<svg xmlns="http://www.w3.org/2000/svg" viewBox="0 0 1254 1254" role="img" aria-labelledby="title desc">
  <title id="title">Movie Wishlist emblem dark background</title>
  <desc id="desc">Final Movie Wishlist ribbon filmstrip emblem on #0B0F1A background.</desc>
  <rect width="1254" height="1254" fill="#0B0F1A"/>
  <path d="M555.309570,776.296021 
	C531.289490,795.893250 506.253906,813.078186 476.701813,822.562317 
	C441.331543,833.913818 407.172302,830.497986 374.875336,812.608398 
	C348.371643,797.927795 322.305695,782.417542 296.468170,766.585571 
	C274.185516,752.931763 256.490997,734.774536 248.565979,709.158081 
	C245.802994,700.227112 244.098526,690.582336 244.061096,681.254944 
	C243.728546,598.425842 243.742569,515.594543 243.939209,432.764496 
	C244.052170,385.185028 278.630219,344.194855 325.231720,336.423401 
	C354.995331,331.459930 381.575439,339.850922 404.234619,359.151093 
	C417.123596,370.129364 428.565216,382.831512 440.439056,394.972076 
	C468.400299,423.561371 496.237396,452.272156 524.107727,480.950317 
	C531.538940,488.596893 538.856323,496.354645 546.322815,503.966370 
	C552.868958,510.639801 559.734558,510.628357 566.375549,504.177643 
	C587.888977,483.280609 609.195984,462.164307 631.013123,441.589050 
	C646.474121,427.008087 665.077576,422.486603 685.099915,429.874878 
	C705.495422,437.400909 716.770264,453.419586 717.796570,474.830750 
	C719.079651,501.598083 718.453247,528.456482 718.686707,555.275208 
	C718.722168,559.350708 716.448486,560.327209 712.886475,560.193298 
	C696.881592,559.591675 680.955017,559.706055 665.270386,563.825256 
	C645.383728,569.048157 627.937683,578.732605 612.395447,591.998840 
	C608.092651,595.671509 604.033264,599.637756 599.965759,603.576355 
	C574.712036,628.029724 542.594788,631.491272 513.520386,611.609558 
	C503.611786,604.833862 495.168884,595.758423 486.627838,587.165771 
	C444.100281,544.381042 401.783081,501.387299 359.339966,458.518494 
	C352.086761,451.192474 342.677094,452.877502 338.950897,462.481781 
	C337.190399,467.019409 336.324585,472.190979 336.314453,477.077972 
	C336.154510,554.074829 335.982208,631.073181 336.349335,708.068665 
	C336.442993,727.705627 340.317902,746.813293 351.092346,763.871338 
	C358.859070,776.167542 370.105469,780.980225 384.433807,778.467529 
	C401.808105,775.420654 417.305664,767.820190 432.360199,759.136963 
	C470.996460,736.852234 506.354370,709.858582 541.678223,682.821045 
	C572.112366,659.526245 602.810913,636.616577 637.040283,619.001587 
	C662.023987,606.144531 687.839661,595.539734 715.899841,591.615234 
	C759.741760,585.483521 797.337280,597.080994 828.083191,630.087463 
	C851.246765,654.954163 875.522278,678.783875 899.247192,703.129456 
	C912.851440,717.089539 926.391602,731.112915 939.870605,745.193970 
	C948.431946,754.137695 958.247314,753.448853 963.527588,742.279846 
	C966.400146,736.203857 967.764954,728.865906 967.803528,722.085754 
	C968.125183,665.589539 967.980591,609.090759 967.974060,552.592712 
	C967.972900,542.808105 968.967651,533.050171 974.278503,524.693542 
	C978.035645,518.781799 982.539062,512.872192 987.993408,508.601715 
	C1002.933533,496.904510 1018.547913,486.068115 1033.910645,474.911957 
	C1034.982910,474.133301 1036.121460,473.392303 1037.329956,472.863831 
	C1044.948975,469.531921 1049.854980,472.676208 1049.856079,480.953827 
	C1049.865967,555.117859 1049.684814,629.282471 1049.951538,703.445557 
	C1050.023926,723.585388 1048.335083,743.314209 1042.048462,762.516174 
	C1033.221191,789.478394 1019.580688,813.245361 997.073486,831.322327 
	C965.075623,857.021973 917.529663,855.623535 888.301941,826.750916 
	C856.062927,794.903625 824.752319,762.116943 793.008911,729.767334 
	C781.920227,718.466797 771.261719,706.675476 759.496094,696.123596 
	C740.189758,678.808838 717.393188,676.241089 693.014526,682.807190 
	C667.754395,689.610779 645.888733,702.887390 625.673279,718.932556 
	C602.065552,737.670105 578.923950,756.994934 555.309570,776.296021 
M292.552521,582.558411 
	C287.009491,579.295532 281.520264,575.931213 275.843323,572.920959 
	C275.251984,572.607361 272.536316,574.369507 272.517548,575.206848 
	C272.342712,583.014648 271.098694,591.257263 273.228485,598.468994 
	C274.331635,602.204529 281.602386,604.120850 286.091980,606.850464 
	C286.517517,607.109192 286.978241,607.311340 287.427643,607.529419 
	C291.725922,609.615723 292.745178,609.055115 292.779999,604.357910 
	C292.831879,597.360596 292.772919,590.362366 292.552521,582.558411 
M273.541626,534.627625 
	C279.465942,537.747925 285.390259,540.868225 291.288971,543.975037 
	C292.078583,542.634888 292.524628,542.222412 292.542969,541.791809 
	C292.684326,538.471008 292.814026,535.146667 292.815033,531.823425 
	C292.820007,515.730286 292.805206,515.730469 278.108978,508.654877 
	C277.809113,508.510529 277.511932,508.358551 277.223663,508.192505 
	C274.289368,506.502197 272.446381,507.848267 272.431732,510.711578 
	C272.391876,518.485596 272.796997,526.261963 273.541626,534.627625 
M280.121185,640.332947 
	C272.820801,636.555115 272.202850,636.942383 272.233612,645.279907 
	C272.238525,646.607971 272.245911,647.936035 272.258148,649.264038 
	C272.406952,665.404541 272.407257,665.404480 287.156189,672.066223 
	C287.307404,672.134521 287.460571,672.199463 287.607635,672.275879 
	C290.867249,673.970825 292.690491,673.232117 292.680420,669.311157 
	C292.674042,666.821167 292.348755,664.265808 292.786743,661.852295 
	C294.689545,651.366394 291.577301,643.893372 280.121185,640.332947 
M1009.593323,603.163940 
	C1007.468933,605.192383 1003.857483,606.996643 1003.511230,609.293091 
	C1002.628967,615.144592 1003.161072,621.216431 1003.215698,627.199219 
	C1003.244080,630.317139 1004.442871,631.529602 1007.598145,629.816772 
	C1011.389038,627.759155 1015.488525,626.217102 1019.090637,623.888977 
	C1020.720215,622.835693 1022.303589,620.494690 1022.463867,618.614746 
	C1022.928284,613.167847 1022.656189,607.658569 1022.682312,602.173767 
	C1022.699463,598.578003 1021.380859,597.072937 1017.790283,598.970520 
	C1015.297180,600.288208 1012.780640,601.561768 1009.593323,603.163940 
M1013.278625,567.777588 
	C1015.212097,566.826355 1017.432617,566.202881 1018.998047,564.831543 
	C1020.555786,563.466980 1022.329102,561.421570 1022.479919,559.551575 
	C1022.931519,553.950439 1022.667725,548.288818 1022.620361,542.651367 
	C1022.590942,539.153442 1021.069458,538.388733 1017.815674,539.777100 
	C1003.360657,545.944641 1003.338440,545.892517 1003.190063,561.681152 
	C1003.188477,561.846985 1003.185547,562.012756 1003.183960,562.178589 
	C1003.081360,572.853516 1003.081360,572.853516 1013.278625,567.777588 
M1003.240051,674.600891 
	C1003.240051,679.470093 1003.240051,684.339294 1003.240051,690.687561 
	C1010.139832,687.243774 1015.592896,684.615295 1020.926208,681.763062 
	C1021.758667,681.317871 1022.486389,679.865906 1022.514038,678.858948 
	C1022.687256,672.557495 1022.754150,666.247986 1022.628540,659.945801 
	C1022.576294,657.320374 1020.937988,656.451477 1018.522461,657.631531 
	C1015.990479,658.868469 1013.634094,660.615112 1010.983032,661.427795 
	C1004.743652,663.340576 1001.959961,667.125305 1003.240051,674.600891 
M643.636536,670.871277 
	C649.257080,668.234802 654.916870,665.675720 660.452148,662.871033 
	C661.205261,662.489380 661.666626,660.889465 661.698486,659.836548 
	C661.849121,654.859497 661.964844,649.867615 661.693176,644.902954 
	C661.638245,643.899475 659.404602,641.983276 658.934326,642.192566 
	C653.652893,644.543518 648.486755,647.166260 643.387329,649.898193 
	C642.721985,650.254700 642.265747,651.642029 642.288147,652.537537 
	C642.436768,658.475159 642.742249,664.408936 643.636536,670.871277 
M604.950195,671.530396 
	C602.510376,673.188782 598.221741,674.604553 597.966492,676.549561 
	C597.091370,683.217712 597.630676,690.071472 597.630676,697.914490 
	C601.887207,695.606079 604.784180,693.688477 607.937317,692.395996 
	C614.806824,689.580322 618.078674,684.956299 616.681396,677.378479 
	C616.013428,673.756409 615.657227,670.076782 615.159851,666.423279 
	C611.961426,667.990356 608.762939,669.557434 604.950195,671.530396 
M701.204712,646.681458 
	C706.117249,645.526062 707.728394,642.395081 707.174194,637.514404 
	C706.801025,634.228516 707.021545,630.865723 707.101868,627.540405 
	C707.179138,624.343567 705.789124,623.196838 702.785645,624.276062 
	C698.720947,625.736572 694.609680,627.120850 690.702148,628.933838 
	C689.504578,629.489502 688.232544,631.307068 688.159668,632.611816 
	C687.881897,637.586304 688.047913,642.587769 688.111206,647.578369 
	C688.153564,650.914673 689.778442,651.592896 692.677917,650.246277 
	C695.237854,649.057312 697.871277,648.026489 701.204712,646.681458 
z" fill="#E2AD63"/>
  <path d="M584.000000,1255.000000 
	C389.333344,1255.000000 195.166672,1255.000000 1.000000,1255.000000 
	C1.000000,837.000000 1.000000,419.000000 1.000000,1.000000 
	C419.000000,1.000000 837.000000,1.000000 1255.000000,1.000000 
	C1255.000000,419.000000 1255.000000,837.000000 1255.000000,1255.000000 
	C1031.500000,1255.000000 808.000000,1255.000000 584.000000,1255.000000 
M555.580078,776.064880 
	C578.923950,756.994934 602.065552,737.670105 625.673279,718.932556 
	C645.888733,702.887390 667.754395,689.610779 693.014526,682.807190 
	C717.393188,676.241089 740.189758,678.808838 759.496094,696.123596 
	C771.261719,706.675476 781.920227,718.466797 793.008911,729.767334 
	C824.752319,762.116943 856.062927,794.903625 888.301941,826.750916 
	C917.529663,855.623535 965.075623,857.021973 997.073486,831.322327 
	C1019.580688,813.245361 1033.221191,789.478394 1042.048462,762.516174 
	C1048.335083,743.314209 1050.023926,723.585388 1049.951538,703.445557 
	C1049.684814,629.282471 1049.865967,555.117859 1049.856079,480.953827 
	C1049.854980,472.676208 1044.948975,469.531921 1037.329956,472.863831 
	C1036.121460,473.392303 1034.982910,474.133301 1033.910645,474.911957 
	C1018.547913,486.068115 1002.933533,496.904510 987.993408,508.601715 
	C982.539062,512.872192 978.035645,518.781799 974.278503,524.693542 
	C968.967651,533.050171 967.972900,542.808105 967.974060,552.592712 
	C967.980591,609.090759 968.125183,665.589539 967.803528,722.085754 
	C967.764954,728.865906 966.400146,736.203857 963.527588,742.279846 
	C958.247314,753.448853 948.431946,754.137695 939.870605,745.193970 
	C926.391602,731.112915 912.851440,717.089539 899.247192,703.129456 
	C875.522278,678.783875 851.246765,654.954163 828.083191,630.087463 
	C797.337280,597.080994 759.741760,585.483521 715.899841,591.615234 
	C687.839661,595.539734 662.023987,606.144531 637.040283,619.001587 
	C602.810913,636.616577 572.112366,659.526245 541.678223,682.821045 
	C506.354370,709.858582 470.996460,736.852234 432.360199,759.136963 
	C417.305664,767.820190 401.808105,775.420654 384.433807,778.467529 
	C370.105469,780.980225 358.859070,776.167542 351.092346,763.871338 
	C340.317902,746.813293 336.442993,727.705627 336.349335,708.068665 
	C335.982208,631.073181 336.154510,554.074829 336.314453,477.077972 
	C336.324585,472.190979 337.190399,467.019409 338.950897,462.481781 
	C342.677094,452.877502 352.086761,451.192474 359.339966,458.518494 
	C401.783081,501.387299 444.100281,544.381042 486.627838,587.165771 
	C495.168884,595.758423 503.611786,604.833862 513.520386,611.609558 
	C542.594788,631.491272 574.712036,628.029724 599.965759,603.576355 
	C604.033264,599.637756 608.092651,595.671509 612.395447,591.998840 
	C627.937683,578.732605 645.383728,569.048157 665.270386,563.825256 
	C680.955017,559.706055 696.881592,559.591675 712.886475,560.193298 
	C716.448486,560.327209 718.722168,559.350708 718.686707,555.275208 
	C718.453247,528.456482 719.079651,501.598083 717.796570,474.830750 
	C716.770264,453.419586 705.495422,437.400909 685.099915,429.874878 
	C665.077576,422.486603 646.474121,427.008087 631.013123,441.589050 
	C609.195984,462.164307 587.888977,483.280609 566.375549,504.177643 
	C559.734558,510.628357 552.868958,510.639801 546.322815,503.966370 
	C538.856323,496.354645 531.538940,488.596893 524.107727,480.950317 
	C496.237396,452.272156 468.400299,423.561371 440.439056,394.972076 
	C428.565216,382.831512 417.123596,370.129364 404.234619,359.151093 
	C381.575439,339.850922 354.995331,331.459930 325.231720,336.423401 
	C278.630219,344.194855 244.052170,385.185028 243.939209,432.764496 
	C243.742569,515.594543 243.728546,598.425842 244.061096,681.254944 
	C244.098526,690.582336 245.802994,700.227112 248.565979,709.158081 
	C256.490997,734.774536 274.185516,752.931763 296.468170,766.585571 
	C322.305695,782.417542 348.371643,797.927795 374.875336,812.608398 
	C407.172302,830.497986 441.331543,833.913818 476.701813,822.562317 
	C506.253906,813.078186 531.289490,795.893250 555.580078,776.064880 
z" fill="#0B0F1A"/>
  <path d="M292.656830,582.961487 
	C292.772919,590.362366 292.831879,597.360596 292.779999,604.357910 
	C292.745178,609.055115 291.725922,609.615723 287.427643,607.529419 
	C286.978241,607.311340 286.517517,607.109192 286.091980,606.850464 
	C281.602386,604.120850 274.331635,602.204529 273.228485,598.468994 
	C271.098694,591.257263 272.342712,583.014648 272.517548,575.206848 
	C272.536316,574.369507 275.251984,572.607361 275.843323,572.920959 
	C281.520264,575.931213 287.009491,579.295532 292.656830,582.961487 
z" fill="#0B0F1A"/>
  <path d="M273.283691,534.332520 
	C272.796997,526.261963 272.391876,518.485596 272.431732,510.711578 
	C272.446381,507.848267 274.289368,506.502197 277.223663,508.192505 
	C277.511932,508.358551 277.809113,508.510529 278.108978,508.654877 
	C292.805206,515.730469 292.820007,515.730286 292.815033,531.823425 
	C292.814026,535.146667 292.684326,538.471008 292.542969,541.791809 
	C292.524628,542.222412 292.078583,542.634888 291.288971,543.975037 
	C285.390259,540.868225 279.465942,537.747925 273.283691,534.332520 
z" fill="#0B0F1A"/>
  <path d="M280.439331,640.529907 
	C291.577301,643.893372 294.689545,651.366394 292.786743,661.852295 
	C292.348755,664.265808 292.674042,666.821167 292.680420,669.311157 
	C292.690491,673.232117 290.867249,673.970825 287.607635,672.275879 
	C287.460571,672.199463 287.307404,672.134521 287.156189,672.066223 
	C272.407257,665.404480 272.406952,665.404541 272.258148,649.264038 
	C272.245911,647.936035 272.238525,646.607971 272.233612,645.279907 
	C272.202850,636.942383 272.820801,636.555115 280.439331,640.529907 
z" fill="#0B0F1A"/>
  <path d="M1009.933960,603.009521 
	C1012.780640,601.561768 1015.297180,600.288208 1017.790283,598.970520 
	C1021.380859,597.072937 1022.699463,598.578003 1022.682312,602.173767 
	C1022.656189,607.658569 1022.928284,613.167847 1022.463867,618.614746 
	C1022.303589,620.494690 1020.720215,622.835693 1019.090637,623.888977 
	C1015.488525,626.217102 1011.389038,627.759155 1007.598145,629.816772 
	C1004.442871,631.529602 1003.244080,630.317139 1003.215698,627.199219 
	C1003.161072,621.216431 1002.628967,615.144592 1003.511230,609.293091 
	C1003.857483,606.996643 1007.468933,605.192383 1009.933960,603.009521 
z" fill="#0B0F1A"/>
  <path d="M1012.931396,567.927368 
	C1003.081360,572.853516 1003.081360,572.853516 1003.183960,562.178589 
	C1003.185547,562.012756 1003.188477,561.846985 1003.190063,561.681152 
	C1003.338440,545.892517 1003.360657,545.944641 1017.815674,539.777100 
	C1021.069458,538.388733 1022.590942,539.153442 1022.620361,542.651367 
	C1022.667725,548.288818 1022.931519,553.950439 1022.479919,559.551575 
	C1022.329102,561.421570 1020.555786,563.466980 1018.998047,564.831543 
	C1017.432617,566.202881 1015.212097,566.826355 1012.931396,567.927368 
z" fill="#0B0F1A"/>
  <path d="M1003.238403,674.124023 
	C1001.959961,667.125305 1004.743652,663.340576 1010.983032,661.427795 
	C1013.634094,660.615112 1015.990479,658.868469 1018.522461,657.631531 
	C1020.937988,656.451477 1022.576294,657.320374 1022.628540,659.945801 
	C1022.754150,666.247986 1022.687256,672.557495 1022.514038,678.858948 
	C1022.486389,679.865906 1021.758667,681.317871 1020.926208,681.763062 
	C1015.592896,684.615295 1010.139832,687.243774 1003.240051,690.687561 
	C1003.240051,684.339294 1003.240051,679.470093 1003.238403,674.124023 
z" fill="#0B0F1A"/>
  <path d="M643.316650,670.607605 
	C642.742249,664.408936 642.436768,658.475159 642.288147,652.537537 
	C642.265747,651.642029 642.721985,650.254700 643.387329,649.898193 
	C648.486755,647.166260 653.652893,644.543518 658.934326,642.192566 
	C659.404602,641.983276 661.638245,643.899475 661.693176,644.902954 
	C661.964844,649.867615 661.849121,654.859497 661.698486,659.836548 
	C661.666626,660.889465 661.205261,662.489380 660.452148,662.871033 
	C654.916870,665.675720 649.257080,668.234802 643.316650,670.607605 
z" fill="#0B0F1A"/>
  <path d="M605.257324,671.327515 
	C608.762939,669.557434 611.961426,667.990356 615.159851,666.423218 
	C615.657227,670.076782 616.013428,673.756409 616.681396,677.378479 
	C618.078674,684.956299 614.806824,689.580322 607.937317,692.395996 
	C604.784180,693.688477 601.887207,695.606079 597.630676,697.914490 
	C597.630676,690.071472 597.091370,683.217712 597.966492,676.549561 
	C598.221741,674.604553 602.510376,673.188782 605.257324,671.327515 
z" fill="#0B0F1A"/>
  <path d="M700.838501,646.803711 
	C697.871277,648.026489 695.237854,649.057312 692.677917,650.246277 
	C689.778442,651.592896 688.153564,650.914673 688.111206,647.578369 
	C688.047913,642.587769 687.881897,637.586304 688.159668,632.611816 
	C688.232544,631.307068 689.504578,629.489502 690.702148,628.933838 
	C694.609680,627.120850 698.720947,625.736572 702.785645,624.276062 
	C705.789124,623.196838 707.179138,624.343567 707.101868,627.540405 
	C707.021545,630.865723 706.801025,634.228516 707.174194,637.514404 
	C707.728394,642.395081 706.117249,645.526062 700.838501,646.803711 
z" fill="#0B0F1A"/>
</svg>
