<svg version="1.1" xmlns="http://www.w3.org/2000/svg" style="display: block;" viewBox="0 0 2048 1365" width="1536" height="1024" preserveAspectRatio="none">
<path transform="translate(0,0)" fill="rgb(234,198,75)" d="M 823.906 433.431 C 833.972 432.408 856.196 433.025 866.851 433.037 L 947.254 433.081 L 1209.6 433.062 C 1207.27 444.362 1206.31 454.075 1207 465.594 C 1208.56 496.538 1222.36 525.592 1245.36 546.355 C 1268.53 566.882 1300.87 576.937 1331.6 575.131 C 1329.96 613.802 1331.29 660.419 1331.1 699.518 C 1330.8 760.523 1338.25 813.807 1289.71 861.498 C 1242.54 907.846 1196.08 908.129 1135.62 908.153 L 1055.25 908.136 L 1026.12 908.04 C 989.398 945.759 950.905 982.1 913.83 1019.5 C 903.743 1029.68 893.869 1040.86 878.652 1040.98 C 869.552 1041.02 860.8 1037.48 854.294 1031.12 C 850.225 1027.13 847.371 1022.07 846.065 1016.52 C 843.813 1007.1 844.478 983.436 844.483 972.859 L 844.443 909.083 C 798.029 909.288 763.265 901.331 727.034 870.577 C 699.375 847.1 678.401 808.575 677.15 772.177 C 676.144 742.925 676.896 709.73 676.868 679.942 L 676.803 613.736 C 676.791 590.146 675.532 567.641 681.078 544.568 C 686.681 521.836 697.743 500.814 713.306 483.324 C 743.339 449.409 779.805 436.18 823.906 433.431 z M 901.802 952.387 C 920.946 932.347 941.687 912.996 961.185 893.167 C 969.372 884.842 998.027 853.133 1007.75 853.076 L 1118.52 853.096 C 1168.68 853.105 1213.3 860.439 1252.27 821.292 C 1264.25 809.4 1272.52 794.284 1276.07 777.78 C 1279.14 764.09 1278.04 729.051 1278.03 713.005 L 1278.04 599.987 C 1221.56 578.416 1190.71 542.928 1177.37 484.205 C 1120.21 485.328 1060.7 484.599 1003.38 484.605 L 937.053 484.605 C 927.732 484.603 912.758 485.057 903.839 484.511 C 856.182 484.76 796.287 476.652 759.854 513.764 C 748.872 524.951 738.873 539.109 734.611 554.32 C 726.895 581.865 730.109 625.579 730.105 654.526 C 730.099 687.376 729.737 720.274 730.194 753.116 C 730.597 782.093 738.511 805.45 759.98 826.076 C 806.677 870.937 883.835 842.84 898.459 858.176 C 901.56 861.427 901.899 870.097 902.013 874.344 C 902.707 900.119 902.499 926.599 901.802 952.387 z"/>
<path transform="translate(0,0)" fill="rgb(234,198,75)" d="M 1311.13 364.215 C 1364.01 356.612 1413.05 393.317 1420.66 446.201 C 1428.27 499.086 1391.57 548.127 1338.69 555.744 C 1285.79 563.361 1236.74 526.654 1229.13 473.761 C 1221.52 420.867 1258.23 371.819 1311.13 364.215 z"/>
</svg>