<svg version="1.1" xmlns="http://www.w3.org/2000/svg" style="display: block;" viewBox="0 0 2048 1365" width="1536" height="1024" preserveAspectRatio="none">
<path transform="translate(0,0)" fill="rgb(254,214,66)" d="M 772.692 361.394 C 774.536 361.017 785.252 360.855 787.426 360.859 C 897.582 361.042 1007.79 360.993 1117.94 360.988 L 1214.36 360.93 C 1229.6 360.921 1244.88 360.842 1260.1 360.991 C 1347.75 361.849 1412.42 428.691 1412.9 515.456 L 1412.9 667.245 C 1412.92 697.107 1415.09 756.802 1408.51 783.69 C 1401.81 810.449 1388.05 834.922 1368.68 854.565 C 1341.95 881.59 1306.6 898.413 1268.77 902.122 C 1251.93 903.723 1227.35 903.015 1209.95 902.991 L 1116.83 902.956 L 1027.27 903.033 C 1019.31 909.202 996.294 932.936 988.249 940.894 L 909.568 1018.72 C 898.352 1029.8 886.149 1042.98 873.765 1052.54 C 861.972 1061.64 841.673 1059.4 831.278 1049.02 C 827.174 1044.89 824.323 1039.68 823.054 1033.99 C 821.384 1026.16 821.916 999.29 821.915 989.832 L 821.973 902.956 C 773.221 903.217 738.714 901.653 697.364 870.561 C 664.202 845.625 641.65 807.789 636.124 766.602 C 634.121 751.677 634.76 732.287 634.757 716.788 L 634.787 640.128 L 634.433 556.895 C 634.263 534.605 633.095 505.975 637.278 484.544 C 641.922 460.838 652.082 438.559 666.936 419.509 C 694.543 383.69 728.592 367.089 772.692 361.394 z M 874.81 977.491 C 895.532 954.545 919.496 933.088 941.597 911.327 C 960.587 892.63 980.026 871.692 1000.9 855.381 C 1008.96 849.087 1046.4 851.154 1057.67 851.165 L 1138.65 851.232 L 1210.25 851.323 C 1256.78 851.362 1296.16 853.422 1332.51 817.258 C 1371.89 778.071 1359.77 720.037 1361.15 669.2 C 1362.47 620.397 1360.16 570.306 1361.28 521.405 C 1361.49 490.485 1351.47 462.137 1329.05 440.371 C 1314.33 426.019 1295.69 416.338 1275.49 412.545 C 1259.77 409.683 1227.95 410.589 1210.71 410.603 L 1113.11 410.56 L 891.223 410.597 C 862.518 410.609 833.706 410.309 804.99 410.304 C 804.243 410.304 803.394 410.385 802.647 410.447 C 769.584 411.208 739.467 417.488 715.669 442.587 C 703.116 455.826 693.073 475.011 689.213 492.89 C 684.066 516.728 686.731 572.43 686.754 599.339 C 686.795 647.901 685.375 696.921 687.029 745.422 C 688.038 775.026 698.296 802.447 720.339 822.931 C 772.162 871.089 839.511 838.079 865.823 857.227 C 873.259 862.639 874.733 870.922 875.153 879.544 C 875.769 892.208 875.006 905.09 874.92 917.774 C 874.786 937.681 875.101 957.582 874.81 977.491 z"/>
</svg>